# xmcd
# 
# Track frame offsets:
#     183
#     18063
#     33293
# 
# Disc length: 704
# 
# Revision: 1
# Processed by: cddbd v1.5.2PL0 Copyright (c) Steve Scherf et al.
# Submitted via: fre:ac v1.0.31
# 
DISCID=1302be03
DTITLE=Terry, Blair and Anouchka - Missing
DYEAR=1989
DGENRE=Alternative
TTITLE0=Missing
TTITLE1=Happy Families
TTITLE2=Beautiful People
EXTD=
EXTT0=
EXTT1=
EXTT2=
PLAYORDER=
